G04 Layer_Physical_Order=2*
G04 Layer_Color=16711680*
%FSLAX25Y25*%
%MOIN*%
G70*
G01*
G75*
%ADD10C,0.03900*%
%ADD11C,0.04000*%
G36*
X464008Y329747D02*
X464035Y207778D01*
X463882Y207625D01*
X284125Y207499D01*
X283998Y329827D01*
X464008Y329747D01*
D02*
G37*
%LPC*%
G36*
X453230Y224616D02*
X452719D01*
X452653Y224603D01*
X452586Y224607D01*
X451823Y224507D01*
X451697Y224464D01*
X451566Y224438D01*
X450617Y224045D01*
X450506Y223971D01*
X450387Y223912D01*
X449572Y223287D01*
X449484Y223187D01*
X449384Y223099D01*
X448759Y222284D01*
X448700Y222164D01*
X448626Y222053D01*
X448233Y221105D01*
X448207Y220974D01*
X448164Y220848D01*
X448063Y220085D01*
X448068Y220018D01*
X448055Y219952D01*
Y219696D01*
Y219441D01*
X448068Y219375D01*
X448063Y219308D01*
X448164Y218545D01*
X448207Y218419D01*
X448233Y218288D01*
X448626Y217339D01*
X448700Y217229D01*
X448759Y217109D01*
X449384Y216294D01*
X449484Y216206D01*
X449572Y216106D01*
X450387Y215481D01*
X450506Y215422D01*
X450617Y215348D01*
X451566Y214955D01*
X451697Y214929D01*
X451823Y214886D01*
X452586Y214786D01*
X452653Y214790D01*
X452719Y214777D01*
X453230D01*
X453296Y214790D01*
X453363Y214786D01*
X454125Y214886D01*
X454252Y214929D01*
X454383Y214955D01*
X455331Y215348D01*
X455442Y215422D01*
X455562Y215481D01*
X456376Y216106D01*
X456464Y216206D01*
X456565Y216294D01*
X457190Y217109D01*
X457249Y217229D01*
X457323Y217339D01*
X457716Y218288D01*
X457742Y218419D01*
X457785Y218545D01*
X457885Y219308D01*
X457881Y219375D01*
X457894Y219441D01*
Y219696D01*
Y219952D01*
X457881Y220018D01*
X457885Y220085D01*
X457785Y220848D01*
X457742Y220974D01*
X457716Y221105D01*
X457323Y222053D01*
X457249Y222164D01*
X457190Y222284D01*
X456565Y223099D01*
X456464Y223186D01*
X456376Y223287D01*
X455562Y223912D01*
X455442Y223971D01*
X455331Y224045D01*
X454383Y224438D01*
X454252Y224464D01*
X454125Y224507D01*
X453363Y224607D01*
X453296Y224603D01*
X453230Y224616D01*
D02*
G37*
G36*
X295315Y221372D02*
X294803D01*
X294738Y221359D01*
X294670Y221363D01*
X293908Y221263D01*
X293781Y221220D01*
X293651Y221194D01*
X292702Y220801D01*
X292591Y220727D01*
X292472Y220668D01*
X291657Y220042D01*
X291569Y219942D01*
X291469Y219854D01*
X290844Y219040D01*
X290785Y218920D01*
X290710Y218809D01*
X290318Y217860D01*
X290291Y217730D01*
X290249Y217603D01*
X290148Y216841D01*
X290153Y216774D01*
X290140Y216708D01*
Y216452D01*
Y216196D01*
X290153Y216131D01*
X290148Y216063D01*
X290249Y215301D01*
X290291Y215175D01*
X290318Y215044D01*
X290710Y214095D01*
X290785Y213984D01*
X290844Y213865D01*
X291469Y213050D01*
X291569Y212962D01*
X291657Y212862D01*
X292472Y212237D01*
X292591Y212178D01*
X292702Y212104D01*
X293651Y211711D01*
X293781Y211684D01*
X293908Y211642D01*
X294670Y211541D01*
X294738Y211546D01*
X294803Y211533D01*
X295315D01*
X295381Y211546D01*
X295448Y211541D01*
X296210Y211642D01*
X296337Y211684D01*
X296467Y211711D01*
X297416Y212104D01*
X297527Y212178D01*
X297647Y212237D01*
X298461Y212862D01*
X298549Y212962D01*
X298650Y213050D01*
X299275Y213865D01*
X299334Y213984D01*
X299408Y214095D01*
X299801Y215044D01*
X299827Y215175D01*
X299869Y215301D01*
X299970Y216063D01*
X299966Y216131D01*
X299979Y216196D01*
Y216452D01*
Y216708D01*
X299966Y216774D01*
X299970Y216841D01*
X299869Y217603D01*
X299827Y217730D01*
X299801Y217860D01*
X299408Y218809D01*
X299334Y218920D01*
X299275Y219040D01*
X298649Y219854D01*
X298549Y219942D01*
X298461Y220043D01*
X297647Y220668D01*
X297527Y220727D01*
X297416Y220801D01*
X296467Y221194D01*
X296337Y221220D01*
X296210Y221263D01*
X295448Y221363D01*
X295381Y221359D01*
X295315Y221372D01*
D02*
G37*
G36*
Y258872D02*
X294803D01*
X294738Y258859D01*
X294670Y258863D01*
X293908Y258763D01*
X293781Y258720D01*
X293651Y258694D01*
X292702Y258301D01*
X292591Y258227D01*
X292472Y258168D01*
X291657Y257542D01*
X291569Y257442D01*
X291469Y257354D01*
X290844Y256540D01*
X290785Y256420D01*
X290710Y256309D01*
X290318Y255360D01*
X290291Y255230D01*
X290249Y255103D01*
X290148Y254341D01*
X290153Y254274D01*
X290140Y254208D01*
Y253952D01*
Y253696D01*
X290153Y253631D01*
X290148Y253563D01*
X290249Y252801D01*
X290291Y252675D01*
X290318Y252544D01*
X290710Y251595D01*
X290785Y251484D01*
X290844Y251365D01*
X291469Y250550D01*
X291569Y250462D01*
X291657Y250362D01*
X292472Y249737D01*
X292591Y249678D01*
X292702Y249604D01*
X293651Y249211D01*
X293781Y249184D01*
X293908Y249142D01*
X294670Y249041D01*
X294738Y249046D01*
X294803Y249033D01*
X295315D01*
X295381Y249046D01*
X295448Y249041D01*
X296210Y249142D01*
X296337Y249184D01*
X296467Y249211D01*
X297416Y249604D01*
X297527Y249678D01*
X297647Y249737D01*
X298461Y250362D01*
X298549Y250462D01*
X298650Y250550D01*
X299275Y251365D01*
X299334Y251484D01*
X299408Y251595D01*
X299801Y252544D01*
X299827Y252675D01*
X299869Y252801D01*
X299970Y253563D01*
X299966Y253631D01*
X299979Y253696D01*
Y253952D01*
Y254208D01*
X299966Y254274D01*
X299970Y254341D01*
X299869Y255103D01*
X299827Y255230D01*
X299801Y255360D01*
X299408Y256309D01*
X299334Y256420D01*
X299275Y256540D01*
X298649Y257354D01*
X298549Y257442D01*
X298461Y257543D01*
X297647Y258168D01*
X297527Y258227D01*
X297416Y258301D01*
X296467Y258694D01*
X296337Y258720D01*
X296210Y258763D01*
X295448Y258863D01*
X295381Y258859D01*
X295315Y258872D01*
D02*
G37*
G36*
X453230Y325766D02*
X452719D01*
X452653Y325753D01*
X452586Y325757D01*
X451823Y325657D01*
X451697Y325614D01*
X451566Y325588D01*
X450617Y325195D01*
X450506Y325121D01*
X450387Y325062D01*
X449572Y324437D01*
X449484Y324337D01*
X449384Y324249D01*
X448759Y323434D01*
X448700Y323314D01*
X448626Y323203D01*
X448233Y322255D01*
X448207Y322124D01*
X448164Y321998D01*
X448063Y321235D01*
X448068Y321168D01*
X448055Y321102D01*
Y320846D01*
Y320591D01*
X448068Y320525D01*
X448063Y320458D01*
X448164Y319695D01*
X448207Y319569D01*
X448233Y319438D01*
X448626Y318489D01*
X448700Y318379D01*
X448759Y318259D01*
X449384Y317444D01*
X449484Y317356D01*
X449572Y317256D01*
X450387Y316631D01*
X450506Y316572D01*
X450617Y316498D01*
X451566Y316105D01*
X451697Y316079D01*
X451823Y316036D01*
X452586Y315936D01*
X452653Y315940D01*
X452719Y315927D01*
X453230D01*
X453296Y315940D01*
X453363Y315936D01*
X454125Y316036D01*
X454252Y316079D01*
X454383Y316105D01*
X455331Y316498D01*
X455442Y316572D01*
X455562Y316631D01*
X456376Y317256D01*
X456464Y317356D01*
X456565Y317444D01*
X457190Y318259D01*
X457249Y318378D01*
X457323Y318489D01*
X457716Y319438D01*
X457742Y319569D01*
X457785Y319695D01*
X457885Y320458D01*
X457881Y320525D01*
X457894Y320591D01*
Y320846D01*
Y321102D01*
X457881Y321168D01*
X457885Y321235D01*
X457785Y321998D01*
X457742Y322124D01*
X457716Y322255D01*
X457323Y323203D01*
X457249Y323314D01*
X457190Y323434D01*
X456565Y324249D01*
X456464Y324337D01*
X456376Y324437D01*
X455562Y325062D01*
X455442Y325121D01*
X455331Y325195D01*
X454383Y325588D01*
X454252Y325614D01*
X454125Y325657D01*
X453363Y325757D01*
X453296Y325753D01*
X453230Y325766D01*
D02*
G37*
G36*
Y288266D02*
X452719D01*
X452653Y288253D01*
X452586Y288257D01*
X451823Y288157D01*
X451697Y288114D01*
X451566Y288088D01*
X450617Y287695D01*
X450506Y287621D01*
X450387Y287562D01*
X449572Y286937D01*
X449484Y286837D01*
X449384Y286749D01*
X448759Y285934D01*
X448700Y285814D01*
X448626Y285703D01*
X448233Y284755D01*
X448207Y284624D01*
X448164Y284498D01*
X448063Y283735D01*
X448068Y283668D01*
X448055Y283602D01*
Y283346D01*
Y283091D01*
X448068Y283025D01*
X448063Y282958D01*
X448164Y282195D01*
X448207Y282069D01*
X448233Y281938D01*
X448626Y280989D01*
X448700Y280879D01*
X448759Y280759D01*
X449384Y279944D01*
X449484Y279856D01*
X449572Y279756D01*
X450387Y279131D01*
X450506Y279072D01*
X450617Y278998D01*
X451566Y278605D01*
X451697Y278579D01*
X451823Y278536D01*
X452586Y278436D01*
X452653Y278440D01*
X452719Y278427D01*
X453230D01*
X453296Y278440D01*
X453363Y278436D01*
X454125Y278536D01*
X454252Y278579D01*
X454383Y278605D01*
X455331Y278998D01*
X455442Y279072D01*
X455562Y279131D01*
X456376Y279756D01*
X456464Y279856D01*
X456565Y279944D01*
X457190Y280759D01*
X457249Y280878D01*
X457323Y280989D01*
X457716Y281938D01*
X457742Y282069D01*
X457785Y282195D01*
X457885Y282958D01*
X457881Y283025D01*
X457894Y283091D01*
Y283346D01*
Y283602D01*
X457881Y283668D01*
X457885Y283735D01*
X457785Y284498D01*
X457742Y284624D01*
X457716Y284755D01*
X457323Y285703D01*
X457249Y285814D01*
X457190Y285934D01*
X456565Y286749D01*
X456464Y286837D01*
X456376Y286937D01*
X455562Y287562D01*
X455442Y287621D01*
X455331Y287695D01*
X454383Y288088D01*
X454252Y288114D01*
X454125Y288157D01*
X453363Y288257D01*
X453296Y288253D01*
X453230Y288266D01*
D02*
G37*
G36*
Y262116D02*
X452719D01*
X452653Y262103D01*
X452586Y262107D01*
X451823Y262007D01*
X451697Y261964D01*
X451566Y261938D01*
X450617Y261545D01*
X450506Y261471D01*
X450387Y261412D01*
X449572Y260787D01*
X449484Y260687D01*
X449384Y260599D01*
X448759Y259784D01*
X448700Y259664D01*
X448626Y259553D01*
X448233Y258605D01*
X448207Y258474D01*
X448164Y258348D01*
X448063Y257585D01*
X448068Y257518D01*
X448055Y257452D01*
Y257196D01*
Y256941D01*
X448068Y256875D01*
X448063Y256808D01*
X448164Y256045D01*
X448207Y255919D01*
X448233Y255788D01*
X448626Y254839D01*
X448700Y254729D01*
X448759Y254609D01*
X449384Y253794D01*
X449484Y253706D01*
X449572Y253606D01*
X450387Y252981D01*
X450506Y252922D01*
X450617Y252848D01*
X451566Y252455D01*
X451697Y252429D01*
X451823Y252386D01*
X452586Y252286D01*
X452653Y252290D01*
X452719Y252277D01*
X453230D01*
X453296Y252290D01*
X453363Y252286D01*
X454125Y252386D01*
X454252Y252429D01*
X454383Y252455D01*
X455331Y252848D01*
X455442Y252922D01*
X455562Y252981D01*
X456376Y253606D01*
X456464Y253706D01*
X456565Y253794D01*
X457190Y254609D01*
X457249Y254729D01*
X457323Y254839D01*
X457716Y255788D01*
X457742Y255919D01*
X457785Y256045D01*
X457885Y256808D01*
X457881Y256875D01*
X457894Y256941D01*
Y257196D01*
Y257452D01*
X457881Y257518D01*
X457885Y257585D01*
X457785Y258348D01*
X457742Y258474D01*
X457716Y258605D01*
X457323Y259553D01*
X457249Y259664D01*
X457190Y259784D01*
X456565Y260599D01*
X456464Y260686D01*
X456376Y260787D01*
X455562Y261412D01*
X455442Y261471D01*
X455331Y261545D01*
X454383Y261938D01*
X454252Y261964D01*
X454125Y262007D01*
X453363Y262107D01*
X453296Y262103D01*
X453230Y262116D01*
D02*
G37*
%LPD*%
D10*
X375600Y262400D02*
D03*
X438500Y251026D02*
D03*
X438200Y314526D02*
D03*
X375300Y325900D02*
D03*
X345700Y321774D02*
D03*
X308200Y317224D02*
D03*
X437000Y292096D02*
D03*
X411100Y323726D02*
D03*
X376700Y306041D02*
D03*
X407600Y285400D02*
D03*
X411100Y260100D02*
D03*
X437000Y228400D02*
D03*
X407600Y221700D02*
D03*
X376700Y242400D02*
D03*
X333200Y216273D02*
D03*
X311000Y246600D02*
D03*
X336700Y249900D02*
D03*
X346600Y252500D02*
D03*
D11*
X366400Y261964D02*
D03*
Y252500D02*
D03*
X366200Y213900D02*
D03*
X366300Y225025D02*
D03*
Y234700D02*
D03*
X345700Y280500D02*
D03*
X334400D02*
D03*
Y289200D02*
D03*
X345500Y289400D02*
D03*
X355200Y289200D02*
D03*
X355500Y280500D02*
D03*
X366400Y243600D02*
D03*
M02*
