G04 Layer_Color=2752767*
%FSLAX25Y25*%
%MOIN*%
G70*
G01*
G75*
%ADD13C,0.00200*%
D13*
X374800Y261600D02*
Y263200D01*
X376400D01*
Y261600D01*
X374800D01*
X437700Y250226D02*
Y251826D01*
X439300D01*
Y250226D01*
X437700D01*
X365600Y261164D02*
Y262764D01*
X367200D01*
Y261164D01*
X365600D01*
Y251700D02*
Y253300D01*
X367200D01*
Y251700D01*
X365600D01*
X365400Y213100D02*
Y214700D01*
X367000D01*
Y213100D01*
X365400D01*
X365500Y224225D02*
Y225825D01*
X367100D01*
Y224225D01*
X365500D01*
Y233900D02*
Y235500D01*
X367100D01*
Y233900D01*
X365500D01*
X344900Y279700D02*
Y281300D01*
X346500D01*
Y279700D01*
X344900D01*
X333600D02*
Y281300D01*
X335200D01*
Y279700D01*
X333600D01*
Y288400D02*
Y290000D01*
X335200D01*
Y288400D01*
X333600D01*
X344700Y288600D02*
Y290200D01*
X346300D01*
Y288600D01*
X344700D01*
X354400Y288400D02*
Y290000D01*
X356000D01*
Y288400D01*
X354400D01*
X354700Y279700D02*
Y281300D01*
X356300D01*
Y279700D01*
X354700D01*
X437400Y313726D02*
Y315326D01*
X439000D01*
Y313726D01*
X437400D01*
X374500Y325100D02*
Y326700D01*
X376100D01*
Y325100D01*
X374500D01*
X344900Y320974D02*
Y322574D01*
X346500D01*
Y320974D01*
X344900D01*
X307400Y316424D02*
Y318024D01*
X309000D01*
Y316424D01*
X307400D01*
X436200Y291296D02*
Y292896D01*
X437800D01*
Y291296D01*
X436200D01*
X410300Y322926D02*
Y324526D01*
X411900D01*
Y322926D01*
X410300D01*
X375900Y305241D02*
Y306841D01*
X377500D01*
Y305241D01*
X375900D01*
X406800Y284600D02*
Y286200D01*
X408400D01*
Y284600D01*
X406800D01*
X410300Y259300D02*
Y260900D01*
X411900D01*
Y259300D01*
X410300D01*
X436200Y227600D02*
Y229200D01*
X437800D01*
Y227600D01*
X436200D01*
X406800Y220900D02*
Y222500D01*
X408400D01*
Y220900D01*
X406800D01*
X375900Y241600D02*
Y243200D01*
X377500D01*
Y241600D01*
X375900D01*
X332400Y215473D02*
Y217073D01*
X334000D01*
Y215473D01*
X332400D01*
X310200Y245800D02*
Y247400D01*
X311800D01*
Y245800D01*
X310200D01*
X335900Y249100D02*
Y250700D01*
X337500D01*
Y249100D01*
X335900D01*
X345800Y251700D02*
Y253300D01*
X347400D01*
Y251700D01*
X345800D01*
X365600Y242800D02*
Y244400D01*
X367200D01*
Y242800D01*
X365600D01*
M02*
